<?xml version="1.0" encoding="UTF-8" standalone="no"?>
<!DOCTYPE svg PUBLIC "-//W3C//DTD SVG 1.1//EN" "http://www.w3.org/Graphics/SVG/1.1/DTD/svg11.dtd">
<svg width="100%" height="100%" viewBox="0 0 160 160" version="1.1" xmlns="http://www.w3.org/2000/svg" xmlns:xlink="http://www.w3.org/1999/xlink" xml:space="preserve" xmlns:serif="http://www.serif.com/" style="fill-rule:evenodd;clip-rule:evenodd;stroke-linejoin:round;stroke-miterlimit:2;">
    <g transform="matrix(0.0796734,0.641424,-1.16744,0.138174,144.707,-35.206)">
        <g transform="matrix(6.10703,0,0,3.5166,-682.157,-17.2344)">
            <path d="M127.306,13.608L127.229,5.943L129.669,9.119L132.265,5.992L131.987,13.608L127.306,13.608Z" style="fill:rgb(255,0,0);"/>
        </g>
        <path d="M95.196,24.469L124.279,24.469L123.889,30.619L95.303,30.619L95.196,24.469Z" style="fill:rgb(191,3,3);"/>
    </g>
    <g transform="matrix(-0.10915,0.795994,-1.31319,-0.171581,168.751,-16.8339)">
        <g transform="matrix(6.10703,0,0,3.5166,-682.157,-17.2344)">
            <path d="M127.306,13.608L127.229,5.943L129.669,9.119L132.265,5.992L131.987,13.608L127.306,13.608Z" style="fill:rgb(255,180,0);"/>
        </g>
        <path d="M95.196,24.469L124.279,24.469L123.889,30.619L95.303,30.619L95.196,24.469Z" style="fill:rgb(191,132,3);"/>
    </g>
    <g transform="matrix(0.839001,0,0,1.0744,-0.173838,-7.80539)">
        <rect x="9.468" y="15.268" width="135.046" height="132.272"/>
    </g>
    <g transform="matrix(94.1693,0,0,99.4512,19.8428,118.069)">
        <path d="M0.071,-0.716L0.362,-0.716L0.474,-0.28L0.586,-0.716L0.876,-0.716L0.876,-0L0.695,-0L0.695,-0.546L0.555,-0L0.392,-0L0.252,-0.546L0.252,-0L0.071,-0L0.071,-0.716Z" style="fill:white;fill-rule:nonzero;"/>
    </g>
</svg>
